<?xml version="1.0" standalone="no"?>
<!DOCTYPE svg PUBLIC "-//W3C//DTD SVG 20010904//EN"
 "http://www.w3.org/TR/2001/REC-SVG-20010904/DTD/svg10.dtd">
<svg version="1.0" xmlns="http://www.w3.org/2000/svg"
 width="512.000000pt" height="512.000000pt" viewBox="0 0 512.000000 512.000000"
 preserveAspectRatio="xMidYMid meet">
<metadata>
Created by potrace 1.13, written by Peter Selinger 2001-2015
</metadata>
<g transform="translate(0.000000,512.000000) scale(0.100000,-0.100000)"
fill="#000000" stroke="none">
<path d="M2451 4260 c-246 -34 -466 -172 -601 -377 -95 -143 -140 -296 -140
-472 0 -382 243 -704 615 -817 80 -24 106 -27 235 -27 129 0 155 3 235 27 230
70 413 220 519 426 63 122 87 211 93 356 11 251 -74 471 -248 641 -83 81 -138
120 -235 166 -145 67 -326 97 -473 77z"/>
<path d="M2315 2124 c-16 -2 -82 -11 -145 -20 -511 -70 -962 -324 -1234 -694
-89 -120 -87 -113 -84 -347 l3 -208 1705 0 1705 0 3 208 c3 238 6 226 -95 363
-261 351 -701 597 -1218 680 -95 15 -564 28 -640 18z"/>
</g>
</svg>
